<svg aria-hidden="true" style="position:absolute;width:0;height:0" xmlns="http://www.w3.org/2000/svg" overflow="hidden">
  <defs>
    <symbol id="icon-bank" viewBox="0 0 75 75">
     <path fill-rule="evenodd" clip-rule="evenodd" d="M72.3633 31.935C72.3633 32.744 71.7073 33.3998 70.8984 33.3998H70.6055V59.1811H70.8984C71.7073 59.1811 72.3633 59.8369 72.3633 60.6459V65.0405H73.5352C74.344 65.0405 75 65.6963 75 66.5053V73.5366C75 74.3456 74.344 75.0014 73.5352 75.0014H1.46484C0.655957 75.0014 0 74.3456 0 73.5366V66.5053C0 65.6963 0.655957 65.0405 1.46484 65.0405H2.63672V60.6459C2.63672 59.8369 3.29268 59.1811 4.10156 59.1811H4.39453V33.3998H4.10156C3.29268 33.3998 2.63672 32.744 2.63672 31.935V27.5405H1.46484C0.655957 27.5405 0 26.8846 0 26.0756V19.0444C0 18.2353 0.655957 17.5795 1.46484 17.5795H8.95488L36.7236 0.224048C37.1987 -0.0727295 37.8015 -0.0727295 38.2764 0.224048L66.0451 17.5795H73.5352C74.344 17.5795 75 18.2353 75 19.0444V26.0756C75 26.8846 74.344 27.5405 73.5352 27.5405H72.3633V31.935ZM61.8164 30.4701H69.4336V27.5405H61.8164V30.4701ZM58.8867 60.6459C58.8867 59.8369 59.5427 59.1811 60.3516 59.1811H60.6445V33.3998H60.3516C59.5427 33.3998 58.8867 32.744 58.8867 31.935V27.5405H53.6133V31.935C53.6133 32.744 52.9573 33.3998 52.1484 33.3998H51.8555V59.1811H52.1484C52.9573 59.1811 53.6133 59.8369 53.6133 60.6459V65.0405H58.8867V60.6459ZM34.8633 60.6459V65.0405H40.1367V60.6459C40.1367 59.8369 40.7927 59.1811 41.6016 59.1811H41.8945V33.3998H41.6016C40.7927 33.3998 40.1367 32.744 40.1367 31.935V27.5405H34.8633V31.935C34.8633 32.744 34.2073 33.3998 33.3984 33.3998H33.1055V59.1811H33.3984C34.2073 59.1811 34.8633 59.8369 34.8633 60.6459ZM16.1133 60.6459V65.0405H21.3867V60.6459C21.3867 59.8369 22.0427 59.1811 22.8516 59.1811H23.1445V33.3998H22.8516C22.0427 33.3998 21.3867 32.744 21.3867 31.935V27.5405H16.1133V31.935C16.1133 32.744 15.4573 33.3998 14.6484 33.3998H14.3555V59.1811H14.6484C15.4573 59.1811 16.1133 59.8369 16.1133 60.6459ZM24.3164 30.4701H31.9336V27.5405H24.3164V30.4701ZM31.9336 62.1108H24.3164V65.0405H31.9336V62.1108ZM43.0664 30.4701H50.6836V27.5405H43.0664V30.4701ZM50.6836 62.1108H43.0664V65.0405H50.6836V62.1108ZM60.5174 17.5795L37.5 3.19358L14.4826 17.5795H60.5174ZM72.0703 20.5092H2.92969V24.6108H72.0703V20.5092ZM13.1836 30.4701V27.5405H5.56641V30.4701H13.1836ZM13.1836 62.1108H5.56641V65.0405H13.1836V62.1108ZM2.92969 67.9701V72.0717H72.0703V67.9701H2.92969ZM61.8164 62.1108V65.0405H69.4336V62.1108H61.8164ZM11.3555 59.1108V33.4702H7.39453V59.1108H11.3555ZM30.1055 59.1108V33.4702H26.1445V59.1108H30.1055ZM48.8555 33.4702V59.1108H44.8945V33.4702H48.8555ZM63.6445 33.4702V59.1108H67.6055V33.4702H63.6445Z" fill="white" />
    </symbol>
    <symbol id="icon-bussines" viewBox="0 0 75 75">
      <path fill-rule="evenodd" clip-rule="evenodd" d="M52.2271 36.476H58.2687C65.3943 36.476 71.1914 42.2731 71.1914 49.3987V73.5366C71.1914 74.3455 70.5356 75.0014 69.7266 75.0014H5.27344C4.4644 75.0014 3.80859 74.3455 3.80859 73.5366V49.3987C3.80859 42.2731 9.60571 36.476 16.7312 36.476H22.7751C22.8423 36.3864 22.9204 36.3035 23.009 36.2296L28.7687 31.4289C29.0331 31.2085 29.3654 31.0888 29.7066 31.0894H45.2949C45.636 31.0885 45.969 31.2085 46.2335 31.4289L51.9932 36.2296C52.0818 36.3036 52.1599 36.3865 52.2271 36.476ZM49.3166 37.8127L45.4941 34.6264L39.6089 41.8287L46.0131 46.5587L49.3166 37.8127ZM32.7952 34.019L37.5012 39.7781L42.2071 34.019H32.7952ZM35.3934 41.8287L29.5083 34.6264L25.6857 37.8127L28.9893 46.5587L35.3934 41.8287ZM16.7313 39.4057C11.2211 39.4057 6.73828 43.8886 6.73828 49.3987V72.0717H37.4777L30.3781 66.7359L35.1256 50.2568L34.0356 46.4737L29.1731 50.0651C28.9182 50.2533 28.6125 50.3516 28.3028 50.3516C28.1641 50.3516 28.0247 50.3318 27.8886 50.2919C27.4484 50.1621 27.0946 49.8336 26.9325 49.4043L23.1558 39.4057H16.7313ZM37.5245 72.0717H68.2617V49.3987C68.2617 43.8886 63.7789 39.4057 58.2687 39.4057H51.8465L48.07 49.4042C47.9079 49.8335 47.554 50.1619 47.1139 50.2917C46.9778 50.3317 46.8384 50.3515 46.6997 50.3515C46.39 50.3515 46.0843 50.2532 45.8294 50.0649L40.9652 46.4724L39.8748 50.2567H39.8769L44.6244 66.7357L37.5245 72.0717ZM37.5933 42.8267L37.5013 42.9392L37.4094 42.8267L35.4774 44.2536L37.2072 50.2572L32.6816 65.9656L37.5013 69.5878L42.3212 65.9654L38.3719 52.2571L37.8106 50.2571L39.5238 44.2525L37.5933 42.8267Z" fill="white"/>
<path d="M37.5009 23.3026C35.1025 23.3026 33.1514 21.5925 33.1514 19.4906C33.1514 18.6817 32.4956 18.0258 31.6865 18.0258C30.8775 18.0258 30.2217 18.6817 30.2217 19.4906C30.2217 22.7435 32.722 25.4656 36.0361 26.0952V26.6843C36.0361 27.4932 36.6919 28.1492 37.5009 28.1492C38.31 28.1492 38.9658 27.4932 38.9658 26.6843V26.0952C42.2798 25.4656 44.7802 22.7435 44.7802 19.4906C44.7802 15.7733 41.5147 12.749 37.5009 12.749C35.1025 12.749 33.1514 11.0389 33.1514 8.93701C33.1514 6.83511 35.1025 5.12461 37.5009 5.12461C39.8993 5.12461 41.8505 6.83481 41.8505 8.93672C41.8505 9.74561 42.5063 10.4016 43.3153 10.4016C44.1244 10.4016 44.7802 9.74561 44.7802 8.93672C44.7802 5.68374 42.2798 2.96162 38.9658 2.33203V1.46484C38.9658 0.655957 38.31 0 37.5009 0C36.6919 0 36.0361 0.655957 36.0361 1.46484V2.33218C32.722 2.96177 30.2217 5.68389 30.2217 8.93686C30.2217 12.6542 33.4871 15.6785 37.5009 15.6785C39.8993 15.6785 41.8505 17.3886 41.8505 19.4905C41.8505 21.5924 39.8993 23.3026 37.5009 23.3026Z" fill="white"/>
    </symbol>
    <symbol id="icon-digital-economy" viewBox="0 0 75 75">
      <path d="M73.5345 62.6945H71.7768V26.6628C71.7768 22.6245 68.4913 19.339 64.4529 19.339H51.5612L47.2058 12.416H48.3592C49.168 12.416 49.8239 11.7601 49.8239 10.9513C49.8239 10.1424 49.168 9.48649 48.3592 9.48649H47.4843L48.5616 8.05072C49.6543 6.59444 49.717 4.66856 48.7213 3.14446C47.7255 1.62037 45.9367 0.903654 44.1648 1.3195L42.3092 1.75425C41.961 1.83613 41.6013 1.77768 41.2966 1.59078L39.7393 0.634283C38.359 -0.213234 36.6438 -0.213527 35.2632 0.634283L33.7059 1.59049C33.4009 1.77768 33.0412 1.83584 32.693 1.7541L30.8377 1.31936C29.0655 0.903655 27.2767 1.62037 26.2809 3.14432C25.2853 4.66841 25.3479 6.59429 26.4406 8.05057L27.5179 9.48634H26.6427C25.8337 9.48634 25.178 10.1423 25.178 10.9511C25.178 11.76 25.8337 12.4159 26.6427 12.4159H27.7963L23.4409 19.3388H10.5493C6.51091 19.3388 3.22543 22.6243 3.22543 26.6627V62.6943H1.4677C0.658708 62.6943 0.00292969 63.3503 0.00292969 64.1591V67.5281C0.00292969 71.6472 3.35404 74.9984 7.47327 74.9984H67.5289C71.648 74.9984 74.9993 71.6472 74.9993 67.5281V64.1591C74.9993 63.3503 74.3435 62.6945 73.5345 62.6945ZM31.2575 12.416H43.7448L53.8185 28.4286C55.8314 31.6283 56.4534 35.4146 55.5699 39.0901C54.6865 42.7655 52.4116 45.8556 49.1645 47.7909C47.011 49.0743 44.5475 49.7526 42.0409 49.7526H32.9612C30.4545 49.7526 27.9912 49.0743 25.8377 47.7909C22.5905 45.8556 20.3157 42.7655 19.4321 39.0901C18.5486 35.4147 19.1706 31.6283 21.1837 28.4286L31.2575 12.416ZM28.7337 4.74678C28.8548 4.56134 29.3164 3.97206 30.1693 4.17185L32.0246 4.6066C33.1299 4.86557 34.2711 4.6813 35.2388 4.08719L36.7961 3.13084C37.2311 2.86396 37.7715 2.86396 38.2064 3.13084L39.764 4.08734C40.7315 4.68116 41.8726 4.86557 42.9777 4.6066L44.8333 4.17185C45.6862 3.97162 46.1478 4.56119 46.2688 4.74678C46.3899 4.93222 46.7444 5.5918 46.2184 6.29255L43.8219 9.48663H31.1808L28.7839 6.2924C28.2581 5.59166 28.6126 4.93207 28.7337 4.74678ZM6.15497 26.6628C6.15497 24.2398 8.12626 22.2685 10.5493 22.2685H21.5981L18.704 26.8686C16.2672 30.7419 15.5143 35.3255 16.5837 39.7749C17.6531 44.2241 20.4071 47.9647 24.3379 50.3073C26.9448 51.8609 29.9268 52.6822 32.9612 52.6822H42.0409C45.0754 52.6822 48.0573 51.861 50.6641 50.3072C54.595 47.9646 57.3489 44.2241 58.4183 39.7749C59.4879 35.3255 58.7349 30.7421 56.2981 26.8686L53.404 22.2685H64.4526C66.8756 22.2685 68.8469 24.2398 68.8469 26.6628V62.6945H6.15468V26.6628H6.15497ZM72.0697 67.5282C72.0697 70.0321 70.0328 72.069 67.5289 72.069H7.47327C4.96953 72.069 2.93247 70.0321 2.93247 67.5282V65.624H25.5622V65.8437C25.5622 67.5022 26.9065 68.8465 28.565 68.8465H46.4374C48.0958 68.8465 49.4402 67.5022 49.4402 65.8437V65.624H72.0699V67.5282H72.0697Z" fill="white"/>
<path d="M37.5019 39.5796C35.3232 39.5796 33.5506 38.0317 33.5506 36.129C33.5506 35.3202 32.8949 34.6642 32.0859 34.6642C31.2769 34.6642 30.6211 35.3202 30.6211 36.129C30.6211 39.1809 32.9445 41.7378 36.0371 42.362V42.8297C36.0371 43.6386 36.6929 44.2945 37.5019 44.2945C38.3107 44.2945 38.9666 43.6386 38.9666 42.8297V42.362C42.0592 41.7378 44.3827 39.1809 44.3827 36.129C44.3827 32.6111 41.2961 29.7491 37.5019 29.7491C35.3232 29.7491 33.5506 28.2012 33.5506 26.2985C33.5506 24.3961 35.3232 22.8481 37.5019 22.8481C39.6806 22.8481 41.4531 24.3959 41.4531 26.2985C41.4531 27.1073 42.109 27.7633 42.9179 27.7633C43.7267 27.7633 44.3827 27.1073 44.3827 26.2985C44.3827 23.2468 42.0592 20.6899 38.9666 20.0656V19.3388C38.9666 18.5299 38.3107 17.874 37.5019 17.874C36.6929 17.874 36.0371 18.5299 36.0371 19.3388V20.0656C32.9447 20.6899 30.6211 23.2468 30.6211 26.2985C30.6211 29.8166 33.7078 32.6786 37.5019 32.6786C39.6806 32.6786 41.4531 34.2264 41.4531 36.129C41.4531 38.0317 39.6806 39.5796 37.5019 39.5796Z" fill="white"/>
    </symbol>
    <symbol id="icon-economy1" viewBox="0 0 75 75">
     <path fill-rule="evenodd" clip-rule="evenodd" d="M78.4483 59.2017L73.2529 64.3972C72.7107 64.9396 71.9023 65.1003 71.1939 64.8064C70.4856 64.513 70.0281 63.8279 70.0281 63.0614V63.0607V62.4977H41.4999L41.496 62.4975C27.7152 62.4954 16.5041 51.2832 16.5041 37.5017C16.5041 31.5349 18.6068 26.0507 22.1087 21.7483L12.9719 21.7485V22.3322C12.9719 23.0988 12.5143 23.7838 11.806 24.0773C11.0976 24.3709 10.2895 24.2102 9.74731 23.6683L4.55206 18.473C4.1839 18.1047 4.00004 17.6208 3.99989 17.1371C3.99989 16.6536 4.18375 16.1702 4.55162 15.8021L9.747 10.6065C10.2894 10.0642 11.0976 9.90348 11.8062 10.1972C12.5144 10.4906 12.9719 11.1756 12.9719 11.9422V11.9429V12.5059L41.5 12.5059L41.5039 12.5061C55.2847 12.5082 66.4958 23.7204 66.4958 37.5019C66.4958 43.4687 64.3931 48.9529 60.8912 53.2552L70.028 53.2551V52.6714C70.028 51.9047 70.4856 51.2198 71.1939 50.9263C71.9023 50.6327 72.7104 50.7934 73.2526 51.3353L78.4479 56.5306C79.184 57.2673 79.1839 58.4655 78.4483 59.2017ZM72.9197 60.5263L75.5795 57.8665L72.9247 55.2119C72.7279 55.8022 72.1709 56.2279 71.5143 56.2279L58.037 56.2281C56.5991 57.4994 55.015 58.6083 53.3124 59.5253H71.5143C72.1654 59.5253 72.7184 59.9437 72.9197 60.5263ZM10.0804 14.4774L7.42057 17.1372L10.0752 19.7919C10.272 19.2015 10.8291 18.7758 11.4856 18.7758L24.9629 18.7757C26.4008 17.5044 27.985 16.3954 29.6876 15.4785H11.4857C10.8347 15.4785 10.2816 15.0601 10.0804 14.4774ZM41.5 58C52.8218 58 62 48.8218 62 37.5C62 26.1782 52.8218 17 41.5 17C30.1782 17 21 26.1782 21 37.5C21 48.8218 30.1782 58 41.5 58Z" fill="white"/>
<path d="M41.4988 31.7517C42.9074 31.7517 44.0533 32.73 44.0533 33.9325C44.0533 34.7532 44.7188 35.4188 45.5396 35.4188C46.3604 35.4188 47.026 34.7532 47.026 33.9325C47.026 31.571 45.3129 29.5769 42.9852 28.9699V28.7398C42.9852 27.919 42.3196 27.2534 41.4988 27.2534C40.6781 27.2534 40.0125 27.919 40.0125 28.7398V28.9699C37.6847 29.5767 35.9717 31.571 35.9717 33.9325C35.9717 36.7742 38.4512 39.0861 41.4988 39.0861C42.9074 39.0861 44.0533 40.0644 44.0533 41.2669C44.0533 42.4695 42.9074 43.4478 41.4988 43.4478C40.0902 43.4478 38.9444 42.4695 38.9444 41.2669C38.9444 40.4461 38.2788 39.7805 37.458 39.7805C36.6373 39.7805 35.9717 40.4461 35.9717 41.2669C35.9717 43.6285 37.6847 45.6226 40.0125 46.2296V46.2664C40.0125 47.0871 40.6781 47.7527 41.4988 47.7527C42.3196 47.7527 42.9852 47.0871 42.9852 46.2664V46.2296C45.3129 45.6228 47.026 43.6285 47.026 41.2669C47.026 38.4253 44.5464 36.1134 41.4988 36.1134C40.0902 36.1134 38.9444 35.1351 38.9444 33.9325C38.9444 32.73 40.0902 31.7517 41.4988 31.7517Z" fill="white"/>
    </symbol>
    <symbol id="icon-economy" viewBox="0 0 75 75">
      <path d="M73.1632 23.9978C71.9972 23.0622 70.4915 22.7117 69.0318 23.0352C66.77 23.5371 65.1905 25.5057 65.1905 27.8225V45.4732C63.4733 43.7223 60.7112 43.4254 58.6568 44.8064L53.5325 48.2519C48.8161 51.4231 45.5761 56.2329 44.409 61.795L42.009 73.2337C41.8429 74.0255 42.3502 74.802 43.1419 74.9683C43.2433 74.9896 43.3445 74.9998 43.4441 74.9998C44.1225 74.9998 44.7314 74.5259 44.8763 73.8355L47.2763 62.3967C48.2856 57.5859 51.0879 53.4261 55.1672 50.6832L60.2914 47.2377C61.2053 46.6234 62.4451 46.7815 63.175 47.6057C64 48.5369 64.0104 49.9017 63.2244 50.8434C63.2155 50.8531 63.2071 50.8632 63.198 50.8727C63.198 50.8727 56.1662 58.3547 56.1396 58.3831C55.5857 58.9728 55.6149 59.8998 56.2046 60.4536C56.7942 61.0076 57.7213 60.9783 58.2752 60.3887C58.2949 60.3677 65.4091 52.8005 65.4826 52.7121C67.1837 50.8218 68.1202 48.3923 68.1202 45.8426V27.8224C68.1202 26.8897 68.7561 26.0972 69.6666 25.8952C70.2539 25.7643 70.8603 25.9059 71.3298 26.2828C71.7991 26.6594 72.0684 27.2206 72.0684 27.8225V48.4117C72.0684 52.1653 70.9198 55.7675 68.747 58.8283L58.9092 72.6863C58.4408 73.3461 58.596 74.2604 59.2557 74.7288C59.5131 74.9114 59.8091 74.9993 60.1024 74.9993C60.5609 74.9993 61.0125 74.7846 61.2982 74.3823L71.136 60.5241C73.6627 56.9648 74.9982 52.7763 74.9982 48.4117V27.8224C74.9979 26.3274 74.3292 24.9334 73.1632 23.9978Z" fill="white"/>
<path d="M30.589 61.795C29.422 56.2329 26.1819 51.4231 21.4654 48.2518L16.3413 44.8064C14.2867 43.425 11.5248 43.7221 9.80753 45.4732V27.8226C9.80753 25.506 8.22799 23.5372 5.96614 23.0352C4.50643 22.7116 3.00087 23.0622 1.83471 23.9979C0.668698 24.9335 0 26.3275 0 27.8225V48.4116C0 52.7764 1.33549 56.965 3.86219 60.5242L13.7 74.3823C13.9857 74.7846 14.4373 74.9993 14.8958 74.9993C15.1891 74.9993 15.4851 74.9114 15.7425 74.7288C16.4021 74.2605 16.5572 73.3461 16.089 72.6864L6.2512 58.8284C4.0784 55.7675 2.92982 52.1653 2.92982 48.4116V27.8226C2.92982 27.2209 3.19906 26.6597 3.66839 26.2829C4.13787 25.9063 4.74402 25.7644 5.33157 25.8953C6.24211 26.0973 6.878 26.8898 6.878 27.8225V45.8425C6.878 48.3922 7.81447 50.8216 9.51559 52.712C9.58912 52.8003 16.7033 60.3674 16.723 60.3886C17.2769 60.9782 18.2038 61.0076 18.7936 60.4535C19.3833 59.8998 19.4125 58.9728 18.8586 58.3829C18.832 58.3545 11.8001 50.8726 11.8001 50.8726C11.7911 50.8631 11.7829 50.8528 11.7738 50.8433C10.9877 49.9014 10.9981 48.5367 11.8231 47.6055C12.5534 46.7814 13.7931 46.6234 14.7068 47.2376L19.8308 50.6832C23.9101 53.4261 26.7125 57.5859 27.7218 62.3967L30.1218 73.8355C30.2666 74.5259 30.8756 74.9998 31.5539 74.9998C31.6535 74.9998 31.7549 74.9895 31.8561 74.9683C32.6479 74.802 33.1551 74.0255 32.989 73.2338L30.589 61.795Z" fill="white"/>
<path d="M37.4999 16.9926C38.888 16.9926 40.0174 17.9568 40.0174 19.1418C40.0174 19.9507 40.6732 20.6067 41.4822 20.6067C42.2913 20.6067 42.9471 19.9507 42.9471 19.1418C42.9471 16.8145 41.259 14.8493 38.9647 14.251V14.0244C38.9647 13.2155 38.3089 12.5596 37.4999 12.5596C36.6909 12.5596 36.0351 13.2155 36.0351 14.0244V14.251C33.741 14.8491 32.0527 16.8145 32.0527 19.1418C32.0527 21.9425 34.4962 24.2209 37.4999 24.2209C38.888 24.2209 40.0174 25.1851 40.0174 26.3701C40.0174 27.5553 38.8881 28.5195 37.4999 28.5195C36.1117 28.5195 34.9824 27.5553 34.9824 26.3701C34.9824 25.5612 34.3266 24.9053 33.5176 24.9053C32.7085 24.9053 32.0527 25.5612 32.0527 26.3701C32.0527 28.6976 33.7408 30.6628 36.0351 31.2611V31.2973C36.0351 32.1062 36.6909 32.7621 37.4999 32.7621C38.3089 32.7621 38.9647 32.1062 38.9647 31.2973V31.2611C41.2588 30.663 42.9471 28.6976 42.9471 26.3701C42.9471 23.5696 40.5036 21.2912 37.4999 21.2912C36.1118 21.2912 34.9824 20.3271 34.9824 19.1418C34.9824 17.9568 36.1118 16.9926 37.4999 16.9926Z" fill="white"/>
<path fill-rule="evenodd" clip-rule="evenodd" d="M37.8515 0C50.4519 0 60.7029 10.2511 60.7029 22.8515C60.7029 35.4519 50.4519 45.7029 37.8515 45.7029C25.2511 45.7029 15 35.4519 15 22.8515C15 10.2511 25.2511 0 37.8515 0ZM38 42C48.4934 42 57 33.4934 57 23C57 12.5066 48.4934 4 38 4C27.5066 4 19 12.5066 19 23C19 33.4934 27.5066 42 38 42Z" fill="white"/>
    </symbol>
    <symbol id="icon-Group" viewBox="0 0 50 24">
      <path d="M49.4271 11.6175C49.4266 11.6169 49.4261 11.6162 49.4254 11.6156L39.2199 1.45937C38.4554 0.698529 37.2188 0.70136 36.4577 1.46601C35.6968 2.23056 35.6997 3.46718 36.4643 4.22812L43.3162 11.0469H1.95312C0.874414 11.0469 0 11.9213 0 13C0 14.0787 0.874414 14.9531 1.95312 14.9531H43.3161L36.4644 21.7719C35.6998 22.5328 35.6969 23.7694 36.4578 24.534C37.2188 25.2987 38.4556 25.3013 39.22 24.5406L49.4255 14.3844C49.4261 14.3838 49.4266 14.3831 49.4272 14.3825C50.1922 13.619 50.1897 12.3784 49.4271 11.6175Z" fill="#C5C9F9"/>
    </symbol>
     <symbol id="icon-house" viewBox="0 0 75 75">
      <path d="M73.1632 23.9978C71.9972 23.0622 70.4915 22.7117 69.0318 23.0352C66.77 23.5371 65.1905 25.5057 65.1905 27.8225V45.4732C63.4733 43.7223 60.7112 43.4254 58.6568 44.8064L53.5325 48.2519C48.8161 51.4231 45.5761 56.2329 44.409 61.795L42.009 73.2337C41.8429 74.0255 42.3502 74.802 43.1419 74.9683C43.2433 74.9896 43.3445 74.9998 43.4441 74.9998C44.1225 74.9998 44.7314 74.5259 44.8763 73.8355L47.2763 62.3967C48.2856 57.5859 51.0879 53.4261 55.1672 50.6832L60.2914 47.2377C61.2053 46.6234 62.4451 46.7815 63.175 47.6057C64 48.5369 64.0104 49.9017 63.2244 50.8434C63.2155 50.8531 63.2071 50.8632 63.198 50.8727C63.198 50.8727 56.1662 58.3547 56.1396 58.3831C55.5857 58.9728 55.6149 59.8998 56.2046 60.4536C56.7942 61.0076 57.7213 60.9783 58.2752 60.3887C58.2949 60.3677 65.4091 52.8005 65.4826 52.7121C67.1837 50.8218 68.1202 48.3923 68.1202 45.8426V27.8224C68.1202 26.8897 68.7561 26.0972 69.6666 25.8952C70.2539 25.7643 70.8603 25.9059 71.3298 26.2828C71.7991 26.6594 72.0684 27.2206 72.0684 27.8225V48.4117C72.0684 52.1653 70.9198 55.7675 68.747 58.8283L58.9092 72.6863C58.4408 73.3461 58.596 74.2604 59.2557 74.7288C59.5131 74.9114 59.8091 74.9993 60.1024 74.9993C60.5609 74.9993 61.0125 74.7846 61.2982 74.3823L71.136 60.5241C73.6627 56.9648 74.9982 52.7763 74.9982 48.4117V27.8224C74.9979 26.3274 74.3292 24.9334 73.1632 23.9978Z" fill="white"/>
<path d="M70.001 72.499H5.00098C4.66946 72.499 4.35151 72.6307 4.11709 72.8651C3.88267 73.0996 3.75098 73.4175 3.75098 73.749C3.75098 74.0806 3.88267 74.3985 4.11709 74.6329C4.35151 74.8674 4.66946 74.9991 5.00098 74.9991H70.001C70.3325 74.9991 70.6504 74.8674 70.8849 74.6329C71.1193 74.3985 71.251 74.0806 71.251 73.749C71.251 73.4175 71.1193 73.0996 70.8849 72.8651C70.6504 72.6307 70.3325 72.499 70.001 72.499Z" fill="white"/>
<path fill-rule="evenodd" clip-rule="evenodd" d="M27.501 42.5005C27.501 43.4951 27.1059 44.4489 26.4026 45.1521C25.6994 45.8554 24.7455 46.2505 23.751 46.2505H22.501C21.5064 46.2505 20.5526 45.8554 19.8493 45.1521C19.1461 44.4489 18.751 43.4951 18.751 42.5005V36.2505C18.751 35.2559 19.1461 34.3021 19.8493 33.5988C20.5526 32.8956 21.5064 32.5005 22.501 32.5005H23.751C24.7455 32.5005 25.6994 32.8956 26.4026 33.5988C27.1059 34.3021 27.501 35.2559 27.501 36.2505V42.5005ZM37.501 38.7505C37.501 39.7451 37.1059 40.6989 36.4026 41.4021C35.6994 42.1054 34.7455 42.5005 33.751 42.5005H31.251V45.0005C31.251 45.332 31.1193 45.65 30.8849 45.8844C30.6504 46.1188 30.3325 46.2505 30.001 46.2505C29.6695 46.2505 29.3515 46.1188 29.1171 45.8844C28.8827 45.65 28.751 45.332 28.751 45.0005V33.7505C28.751 33.419 28.8827 33.101 29.1171 32.8666C29.3515 32.6322 29.6695 32.5005 30.001 32.5005H33.751C34.7455 32.5005 35.6994 32.8956 36.4026 33.5988C37.1059 34.3021 37.501 35.2559 37.501 36.2505V38.7505ZM38.751 33.7505V45.0005C38.751 45.332 38.8827 45.65 39.1171 45.8844C39.3515 46.1188 39.6695 46.2505 40.001 46.2505H45.001C45.3325 46.2505 45.6504 46.1188 45.8849 45.8844C46.1193 45.65 46.251 45.332 46.251 45.0005C46.251 44.669 46.1193 44.351 45.8849 44.1166C45.6504 43.8822 45.3325 43.7505 45.001 43.7505H41.251V40.0005H45.001C45.3325 40.0005 45.6504 39.8688 45.8849 39.6344C46.1193 39.4 46.251 39.082 46.251 38.7505C46.251 38.419 46.1193 38.101 45.8849 37.8666C45.6504 37.6322 45.3325 37.5005 45.001 37.5005H41.251V35.0005H45.001C45.3325 35.0005 45.6504 34.8688 45.8849 34.6344C46.1193 34.4 46.251 34.082 46.251 33.7505C46.251 33.419 46.1193 33.101 45.8849 32.8666C45.6504 32.6322 45.3325 32.5005 45.001 32.5005H40.001C39.6695 32.5005 39.3515 32.6322 39.1171 32.8666C38.8827 33.101 38.751 33.419 38.751 33.7505ZM47.501 33.7505C47.5012 33.4737 47.5934 33.2048 47.7629 32.986C47.9325 32.7672 48.1698 32.6109 48.4378 32.5415C48.7058 32.4722 48.9892 32.4937 49.2436 32.6028C49.498 32.7119 49.709 32.9023 49.8435 33.1442L53.751 40.1767V33.7505C53.751 33.419 53.8827 33.101 54.1171 32.8666C54.3515 32.6322 54.6695 32.5005 55.001 32.5005C55.3325 32.5005 55.6505 32.6322 55.8849 32.8666C56.1193 33.101 56.251 33.419 56.251 33.7505V45.0005C56.251 45.2774 56.1591 45.5465 55.9896 45.7655C55.8201 45.9845 55.5828 46.141 55.3147 46.2105C55.2122 46.2366 55.1068 46.25 55.001 46.2505C54.778 46.2504 54.5591 46.1906 54.367 46.0774C54.1749 45.9642 54.0166 45.8017 53.9085 45.6067L50.001 38.5742V45.0005C50.001 45.332 49.8693 45.65 49.6349 45.8844C49.4005 46.1188 49.0825 46.2505 48.751 46.2505C48.4195 46.2505 48.1015 46.1188 47.8671 45.8844C47.6327 45.65 47.501 45.332 47.501 45.0005V33.7505ZM33.7504 34.9992H31.2504V39.9992H33.7504C34.082 39.9992 34.3999 39.8675 34.6343 39.6331C34.8687 39.3987 35.0004 39.0807 35.0004 38.7492V36.2492C35.0004 35.9177 34.8687 35.5997 34.6343 35.3653C34.3999 35.1309 34.082 34.9992 33.7504 34.9992ZM22.4998 34.9992H23.7498C24.4402 34.9992 24.9998 35.5588 24.9998 36.2492V42.4992C24.9998 43.1896 24.4402 43.7492 23.7498 43.7492H22.4998C21.8095 43.7492 21.2498 43.1896 21.2498 42.4992V36.2492C21.2498 35.5588 21.8095 34.9992 22.4998 34.9992Z" fill="white"/>
<path fill-rule="evenodd" clip-rule="evenodd" d="M10.0026 70V28.75H8.41514C8.4152 28.75 8.41507 28.75 8.41514 28.75C8.15967 28.75 7.91014 28.6717 7.70052 28.5257C7.49085 28.3796 7.33098 28.1728 7.24245 27.9331C7.15392 27.6934 7.14099 27.4323 7.20539 27.185C7.26979 26.9377 7.40843 26.7161 7.60264 26.55L36.6901 1.9375C36.9166 1.74384 37.2047 1.63742 37.5026 1.63742C37.8006 1.63742 38.0887 1.74384 38.3151 1.9375L48.7526 10.775V2.5C48.7526 2.16848 48.8843 1.85054 49.1188 1.61612C49.3532 1.3817 49.6711 1.25 50.0026 1.25H57.5026C57.8342 1.25 58.1521 1.3817 58.3865 1.61612C58.6209 1.85054 58.7526 2.16848 58.7526 2.5V19.225L66.5901 25.862L67.4026 26.55C67.5968 26.7161 67.7355 26.9377 67.7999 27.185C67.8643 27.4323 67.8513 27.6934 67.7628 27.9331C67.6743 28.1728 67.5144 28.3796 67.3047 28.5257C67.0951 28.6717 66.8458 28.75 66.5903 28.75C66.5904 28.75 66.5903 28.75 66.5903 28.75H65.0026V70H10.0026ZM61.8776 66.875V25.9663L55.6276 20.6736V4.375H51.8776V17.5157L37.5022 5.34394L13.1276 25.9686V66.875H61.8776Z" fill="white"/>
    </symbol>

         <symbol id="icon-logo" viewBox="0 0 182 42">
     <path d="M32 0H10C4.47715 0 0 4.47715 0 10V32C0 37.5228 4.47715 42 10 42H32C37.5228 42 42 37.5228 42 32V10C42 4.47715 37.5228 0 32 0Z" fill="#4C49F0"/>
<path d="M32 2H26C21.5817 2 18 5.58172 18 10V16C18 20.4183 21.5817 24 26 24H32C36.4183 24 40 20.4183 40 16V10C40 5.58172 36.4183 2 32 2Z" fill="white"/>
<path d="M57.6836 13.6094H53.8105L52.9316 16H52.1758L55.4043 7.46875H56.0898L59.3184 16H58.5684L57.6836 13.6094ZM54.0332 12.9941H57.4551L55.7441 8.34766L54.0332 12.9941ZM66.666 14.9863C66.416 15.3418 66.0234 15.6191 65.4883 15.8184C64.957 16.0176 64.3613 16.1172 63.7012 16.1172C63.0332 16.1172 62.4395 15.957 61.9199 15.6367C61.4004 15.3164 60.998 14.8633 60.7129 14.2773C60.4277 13.6914 60.2832 13.0195 60.2793 12.2617V11.1836C60.2793 10 60.5781 9.06641 61.1758 8.38281C61.7734 7.69531 62.5762 7.35156 63.584 7.35156C64.4629 7.35156 65.1699 7.57617 65.7051 8.02539C66.2402 8.4707 66.5586 9.08594 66.6602 9.87109H65.9395C65.834 9.24609 65.5781 8.77344 65.1719 8.45312C64.7695 8.12891 64.2422 7.9668 63.5898 7.9668C62.793 7.9668 62.1621 8.25 61.6973 8.81641C61.2324 9.38281 61 10.1816 61 11.2129V12.2207C61 12.8691 61.1094 13.4434 61.3281 13.9434C61.5508 14.4395 61.8672 14.8242 62.2773 15.0977C62.6914 15.3711 63.166 15.5078 63.7012 15.5078C64.3223 15.5078 64.8555 15.4102 65.3008 15.2148C65.5898 15.0859 65.8047 14.9355 65.9453 14.7637V12.5605H63.6543V11.9512H66.666V14.9863ZM73.4219 11.9102H69.4316V15.3906H74.0195V16H68.7109V7.46875H73.9902V8.08398H69.4316V11.3008H73.4219V11.9102ZM81.8945 16H81.1738L76.2695 8.69922V16H75.543V7.46875H76.2695L81.1797 14.7754V7.46875H81.8945V16ZM90.1035 13.3398C90.0059 14.2383 89.6836 14.9258 89.1367 15.4023C88.5938 15.8789 87.8691 16.1172 86.9629 16.1172C86.3301 16.1172 85.7695 15.959 85.2812 15.6426C84.7969 15.3262 84.4219 14.8789 84.1562 14.3008C83.8906 13.7188 83.7559 13.0547 83.752 12.3086V11.2012C83.752 10.4434 83.8848 9.77148 84.1504 9.18555C84.416 8.59961 84.7969 8.14844 85.293 7.83203C85.793 7.51172 86.3672 7.35156 87.0156 7.35156C87.9297 7.35156 88.6504 7.59961 89.1777 8.0957C89.709 8.58789 90.0176 9.26953 90.1035 10.1406H89.377C89.1973 8.69141 88.4102 7.9668 87.0156 7.9668C86.2422 7.9668 85.625 8.25586 85.1641 8.83398C84.707 9.41211 84.4785 10.2109 84.4785 11.2305V12.2734C84.4785 13.2578 84.7012 14.043 85.1465 14.6289C85.5957 15.2148 86.2012 15.5078 86.9629 15.5078C87.7168 15.5078 88.2852 15.3281 88.668 14.9688C89.0508 14.6055 89.2871 14.0625 89.377 13.3398H90.1035ZM94.3574 12.1211L96.9648 7.46875H97.7969L94.7148 12.7891V16H93.9941V12.7891L90.918 7.46875H91.7734L94.3574 12.1211Z" fill="#212121"/>
<path d="M60.6406 30.1289L61.9805 23.0469H64.0244L61.8164 33H59.752L58.1318 26.3418L56.5117 33H54.4473L52.2393 23.0469H54.2832L55.6299 30.1152L57.2705 23.0469H59.0068L60.6406 30.1289ZM67.3193 33H65.2686V23.0469H67.3193V33ZM76.5137 24.708H73.4648V33H71.4141V24.708H68.4062V23.0469H76.5137V24.708ZM85.79 33H83.7393V28.7344H79.7402V33H77.6895V23.0469H79.7402V27.0801H83.7393V23.0469H85.79V33ZM95.7637 28.249C95.7637 29.2288 95.5905 30.0879 95.2441 30.8262C94.8978 31.5645 94.401 32.1341 93.7539 32.5352C93.1113 32.9362 92.373 33.1367 91.5391 33.1367C90.7142 33.1367 89.9782 32.9385 89.3311 32.542C88.6839 32.1455 88.1826 31.5804 87.8271 30.8467C87.4717 30.1084 87.2917 29.2607 87.2871 28.3037V27.8115C87.2871 26.8317 87.4626 25.9704 87.8135 25.2275C88.1689 24.4801 88.668 23.9082 89.3105 23.5117C89.9577 23.1107 90.696 22.9102 91.5254 22.9102C92.3548 22.9102 93.0908 23.1107 93.7334 23.5117C94.3805 23.9082 94.8796 24.4801 95.2305 25.2275C95.5859 25.9704 95.7637 26.8294 95.7637 27.8047V28.249ZM93.6855 27.7979C93.6855 26.7542 93.4987 25.9613 93.125 25.4189C92.7513 24.8766 92.2181 24.6055 91.5254 24.6055C90.8372 24.6055 90.3063 24.8743 89.9326 25.4121C89.5589 25.9453 89.3698 26.7292 89.3652 27.7637V28.249C89.3652 29.2653 89.5521 30.0537 89.9258 30.6143C90.2995 31.1748 90.8372 31.4551 91.5391 31.4551C92.2272 31.4551 92.7559 31.1862 93.125 30.6484C93.4941 30.1061 93.681 29.3177 93.6855 28.2832V27.7979ZM104.787 23.0469V29.6025C104.787 30.6917 104.445 31.5531 103.762 32.1865C103.083 32.82 102.153 33.1367 100.973 33.1367C99.8105 33.1367 98.8877 32.8291 98.2041 32.2139C97.5205 31.5986 97.1719 30.7533 97.1582 29.6777V23.0469H99.209V29.6162C99.209 30.2679 99.3639 30.7441 99.6738 31.0449C99.9883 31.3411 100.421 31.4893 100.973 31.4893C102.126 31.4893 102.711 30.8831 102.729 29.6709V23.0469H104.787ZM113.961 24.708H110.912V33H108.861V24.708H105.854V23.0469H113.961V24.708ZM118.213 33V23.0469H121.699C122.907 23.0469 123.823 23.2793 124.447 23.7441C125.072 24.2044 125.384 24.8812 125.384 25.7744C125.384 26.262 125.258 26.6927 125.008 27.0664C124.757 27.4355 124.409 27.7067 123.962 27.8799C124.472 28.0075 124.873 28.265 125.165 28.6523C125.461 29.0397 125.609 29.5137 125.609 30.0742C125.609 31.0312 125.304 31.7559 124.693 32.248C124.083 32.7402 123.212 32.9909 122.082 33H118.213ZM120.264 28.666V31.3525H122.021C122.504 31.3525 122.88 31.2386 123.148 31.0107C123.422 30.7783 123.559 30.4593 123.559 30.0537C123.559 29.1423 123.087 28.6797 122.144 28.666H120.264ZM120.264 27.2168H121.781C122.816 27.1986 123.333 26.7861 123.333 25.9795C123.333 25.5283 123.201 25.2048 122.937 25.0088C122.677 24.8083 122.264 24.708 121.699 24.708H120.264V27.2168ZM135.33 28.249C135.33 29.2288 135.157 30.0879 134.811 30.8262C134.464 31.5645 133.967 32.1341 133.32 32.5352C132.678 32.9362 131.939 33.1367 131.105 33.1367C130.281 33.1367 129.545 32.9385 128.897 32.542C128.25 32.1455 127.749 31.5804 127.394 30.8467C127.038 30.1084 126.858 29.2607 126.854 28.3037V27.8115C126.854 26.8317 127.029 25.9704 127.38 25.2275C127.735 24.4801 128.234 23.9082 128.877 23.5117C129.524 23.1107 130.262 22.9102 131.092 22.9102C131.921 22.9102 132.657 23.1107 133.3 23.5117C133.947 23.9082 134.446 24.4801 134.797 25.2275C135.152 25.9704 135.33 26.8294 135.33 27.8047V28.249ZM133.252 27.7979C133.252 26.7542 133.065 25.9613 132.691 25.4189C132.318 24.8766 131.785 24.6055 131.092 24.6055C130.404 24.6055 129.873 24.8743 129.499 25.4121C129.125 25.9453 128.936 26.7292 128.932 27.7637V28.249C128.932 29.2653 129.118 30.0537 129.492 30.6143C129.866 31.1748 130.404 31.4551 131.105 31.4551C131.794 31.4551 132.322 31.1862 132.691 30.6484C133.061 30.1061 133.247 29.3177 133.252 28.2832V27.7979ZM140.505 29.3564H138.871V33H136.82V23.0469H140.519C141.694 23.0469 142.601 23.3089 143.239 23.833C143.877 24.3571 144.196 25.0977 144.196 26.0547C144.196 26.7337 144.048 27.3011 143.752 27.7568C143.46 28.208 143.016 28.568 142.419 28.8369L144.572 32.9043V33H142.371L140.505 29.3564ZM138.871 27.6953H140.525C141.04 27.6953 141.439 27.5654 141.722 27.3057C142.004 27.0413 142.146 26.679 142.146 26.2188C142.146 25.7493 142.011 25.3802 141.742 25.1113C141.478 24.8424 141.07 24.708 140.519 24.708H138.871V27.6953ZM145.762 33V23.0469H148.824C149.699 23.0469 150.481 23.2451 151.169 23.6416C151.862 24.0335 152.402 24.5941 152.789 25.3232C153.176 26.0479 153.37 26.8727 153.37 27.7979V28.2559C153.37 29.181 153.179 30.0036 152.796 30.7236C152.418 31.4437 151.882 32.002 151.189 32.3984C150.497 32.7949 149.715 32.9954 148.845 33H145.762ZM147.812 24.708V31.3525H148.804C149.606 31.3525 150.219 31.0905 150.643 30.5664C151.066 30.0423 151.283 29.2926 151.292 28.3174V27.791C151.292 26.7793 151.082 26.0137 150.663 25.4941C150.244 24.9701 149.631 24.708 148.824 24.708H147.812ZM160.855 28.6865H156.918V31.3525H161.539V33H154.867V23.0469H161.525V24.708H156.918V27.0801H160.855V28.6865ZM166.427 29.3564H164.793V33H162.742V23.0469H166.44C167.616 23.0469 168.523 23.3089 169.161 23.833C169.799 24.3571 170.118 25.0977 170.118 26.0547C170.118 26.7337 169.97 27.3011 169.674 27.7568C169.382 28.208 168.938 28.568 168.341 28.8369L170.494 32.9043V33H168.293L166.427 29.3564ZM164.793 27.6953H166.447C166.962 27.6953 167.361 27.5654 167.644 27.3057C167.926 27.0413 168.067 26.679 168.067 26.2188C168.067 25.7493 167.933 25.3802 167.664 25.1113C167.4 24.8424 166.992 24.708 166.44 24.708H164.793V27.6953ZM176.845 30.3887C176.845 30.0013 176.708 29.7051 176.435 29.5C176.161 29.2904 175.669 29.0716 174.958 28.8438C174.247 28.6113 173.684 28.3835 173.27 28.1602C172.139 27.5495 171.574 26.7269 171.574 25.6924C171.574 25.1546 171.725 24.6761 172.025 24.2568C172.331 23.833 172.766 23.5026 173.331 23.2656C173.901 23.0286 174.539 22.9102 175.245 22.9102C175.956 22.9102 176.59 23.04 177.146 23.2998C177.701 23.555 178.132 23.9173 178.438 24.3867C178.747 24.8561 178.902 25.3893 178.902 25.9863H176.852C176.852 25.5306 176.708 25.1774 176.421 24.9268C176.134 24.6715 175.73 24.5439 175.211 24.5439C174.71 24.5439 174.32 24.651 174.042 24.8652C173.764 25.0749 173.625 25.3529 173.625 25.6992C173.625 26.0228 173.787 26.2939 174.11 26.5127C174.438 26.7314 174.919 26.9365 175.553 27.1279C176.719 27.4788 177.569 27.9141 178.103 28.4336C178.636 28.9531 178.902 29.6003 178.902 30.375C178.902 31.2363 178.576 31.9131 177.925 32.4053C177.273 32.8929 176.396 33.1367 175.293 33.1367C174.527 33.1367 173.83 32.9977 173.201 32.7197C172.572 32.4372 172.091 32.0521 171.759 31.5645C171.431 31.0768 171.267 30.5117 171.267 29.8691H173.324C173.324 30.9674 173.98 31.5166 175.293 31.5166C175.781 31.5166 176.161 31.4186 176.435 31.2227C176.708 31.0221 176.845 30.7441 176.845 30.3887Z" fill="#252525"/>
    </symbol>
    

        
  </defs>
</svg>



