<svg width="18" height="18" viewBox="0 0 18 18"  xmlns="http://www.w3.org/2000/svg">
<path opacity="0.5" d="M9.00018 0.818359C7.38197 0.818359 5.8001 1.29821 4.45461 2.19724C3.10911 3.09627 2.06043 4.3741 1.44117 5.86913C0.821904 7.36416 0.659877 9.00925 0.975574 10.5964C1.29127 12.1835 2.07051 13.6413 3.21476 14.7856C4.35901 15.9298 5.81687 16.7091 7.40399 17.0248C8.99111 17.3405 10.6362 17.1785 12.1312 16.5592C13.6263 15.9399 14.9041 14.8912 15.8031 13.5458C16.7021 12.2003 17.182 10.6184 17.182 9.00018C17.1796 6.83096 16.3168 4.75126 14.783 3.21739C13.2491 1.68352 11.1694 0.820742 9.00018 0.818359ZM12.8514 9.57863C12.6979 9.73202 12.4899 9.81818 12.2729 9.81818C12.056 9.81818 11.8479 9.73202 11.6945 9.57863L9.81836 7.70254V12.2729C9.81836 12.4899 9.73216 12.698 9.57872 12.8514C9.42528 13.0049 9.21718 13.0911 9.00018 13.0911C8.78319 13.0911 8.57508 13.0049 8.42164 12.8514C8.2682 12.698 8.182 12.4899 8.182 12.2729V7.70254L6.30591 9.57863C6.1516 9.72767 5.94492 9.81014 5.7304 9.80828C5.51587 9.80641 5.31066 9.72036 5.15897 9.56867C5.00727 9.41697 4.92122 9.21176 4.91936 8.99723C4.91749 8.78271 4.99996 8.57603 5.149 8.42172L8.42173 5.149C8.57558 4.99641 8.78349 4.91079 9.00018 4.91079C9.21687 4.91079 9.42478 4.99641 9.57864 5.149L12.8514 8.42172C13.0047 8.57516 13.0909 8.78323 13.0909 9.00018C13.0909 9.21713 13.0047 9.4252 12.8514 9.57863Z" fill="#3D4CEB"/>
</svg>
