<svg width="180" height="42" viewBox="0 0 180 42" fill="none" xmlns="http://www.w3.org/2000/svg">
<path d="M32 0H10C4.47715 0 0 4.47715 0 10V32C0 37.5228 4.47715 42 10 42H32C37.5228 42 42 37.5228 42 32V10C42 4.47715 37.5228 0 32 0Z" fill="#4C49F0"/>
<path d="M32 2H26C21.5817 2 18 5.58172 18 10V16C18 20.4183 21.5817 24 26 24H32C36.4183 24 40 20.4183 40 16V10C40 5.58172 36.4183 2 32 2Z" fill="white"/>
<path d="M57.6836 13.6094H53.8105L52.9316 16H52.1758L55.4043 7.46875H56.0898L59.3184 16H58.5684L57.6836 13.6094ZM54.0332 12.9941H57.4551L55.7441 8.34766L54.0332 12.9941ZM66.666 14.9863C66.416 15.3418 66.0234 15.6191 65.4883 15.8184C64.957 16.0176 64.3613 16.1172 63.7012 16.1172C63.0332 16.1172 62.4395 15.957 61.9199 15.6367C61.4004 15.3164 60.998 14.8633 60.7129 14.2773C60.4277 13.6914 60.2832 13.0195 60.2793 12.2617V11.1836C60.2793 10 60.5781 9.06641 61.1758 8.38281C61.7734 7.69531 62.5762 7.35156 63.584 7.35156C64.4629 7.35156 65.1699 7.57617 65.7051 8.02539C66.2402 8.4707 66.5586 9.08594 66.6602 9.87109H65.9395C65.834 9.24609 65.5781 8.77344 65.1719 8.45312C64.7695 8.12891 64.2422 7.9668 63.5898 7.9668C62.793 7.9668 62.1621 8.25 61.6973 8.81641C61.2324 9.38281 61 10.1816 61 11.2129V12.2207C61 12.8691 61.1094 13.4434 61.3281 13.9434C61.5508 14.4395 61.8672 14.8242 62.2773 15.0977C62.6914 15.3711 63.166 15.5078 63.7012 15.5078C64.3223 15.5078 64.8555 15.4102 65.3008 15.2148C65.5898 15.0859 65.8047 14.9355 65.9453 14.7637V12.5605H63.6543V11.9512H66.666V14.9863ZM73.4219 11.9102H69.4316V15.3906H74.0195V16H68.7109V7.46875H73.9902V8.08398H69.4316V11.3008H73.4219V11.9102ZM81.8945 16H81.1738L76.2695 8.69922V16H75.543V7.46875H76.2695L81.1797 14.7754V7.46875H81.8945V16ZM90.1035 13.3398C90.0059 14.2383 89.6836 14.9258 89.1367 15.4023C88.5938 15.8789 87.8691 16.1172 86.9629 16.1172C86.3301 16.1172 85.7695 15.959 85.2812 15.6426C84.7969 15.3262 84.4219 14.8789 84.1562 14.3008C83.8906 13.7188 83.7559 13.0547 83.752 12.3086V11.2012C83.752 10.4434 83.8848 9.77148 84.1504 9.18555C84.416 8.59961 84.7969 8.14844 85.293 7.83203C85.793 7.51172 86.3672 7.35156 87.0156 7.35156C87.9297 7.35156 88.6504 7.59961 89.1777 8.0957C89.709 8.58789 90.0176 9.26953 90.1035 10.1406H89.377C89.1973 8.69141 88.4102 7.9668 87.0156 7.9668C86.2422 7.9668 85.625 8.25586 85.1641 8.83398C84.707 9.41211 84.4785 10.2109 84.4785 11.2305V12.2734C84.4785 13.2578 84.7012 14.043 85.1465 14.6289C85.5957 15.2148 86.2012 15.5078 86.9629 15.5078C87.7168 15.5078 88.2852 15.3281 88.668 14.9688C89.0508 14.6055 89.2871 14.0625 89.377 13.3398H90.1035ZM94.3574 12.1211L96.9648 7.46875H97.7969L94.7148 12.7891V16H93.9941V12.7891L90.918 7.46875H91.7734L94.3574 12.1211Z" fill="#212121"/>
<path d="M60.6406 30.1289L61.9805 23.0469H64.0244L61.8164 33H59.752L58.1318 26.3418L56.5117 33H54.4473L52.2393 23.0469H54.2832L55.6299 30.1152L57.2705 23.0469H59.0068L60.6406 30.1289ZM67.3193 33H65.2686V23.0469H67.3193V33ZM76.5137 24.708H73.4648V33H71.4141V24.708H68.4062V23.0469H76.5137V24.708ZM85.79 33H83.7393V28.7344H79.7402V33H77.6895V23.0469H79.7402V27.0801H83.7393V23.0469H85.79V33ZM95.7637 28.249C95.7637 29.2288 95.5905 30.0879 95.2441 30.8262C94.8978 31.5645 94.401 32.1341 93.7539 32.5352C93.1113 32.9362 92.373 33.1367 91.5391 33.1367C90.7142 33.1367 89.9782 32.9385 89.3311 32.542C88.6839 32.1455 88.1826 31.5804 87.8271 30.8467C87.4717 30.1084 87.2917 29.2607 87.2871 28.3037V27.8115C87.2871 26.8317 87.4626 25.9704 87.8135 25.2275C88.1689 24.4801 88.668 23.9082 89.3105 23.5117C89.9577 23.1107 90.696 22.9102 91.5254 22.9102C92.3548 22.9102 93.0908 23.1107 93.7334 23.5117C94.3805 23.9082 94.8796 24.4801 95.2305 25.2275C95.5859 25.9704 95.7637 26.8294 95.7637 27.8047V28.249ZM93.6855 27.7979C93.6855 26.7542 93.4987 25.9613 93.125 25.4189C92.7513 24.8766 92.2181 24.6055 91.5254 24.6055C90.8372 24.6055 90.3063 24.8743 89.9326 25.4121C89.5589 25.9453 89.3698 26.7292 89.3652 27.7637V28.249C89.3652 29.2653 89.5521 30.0537 89.9258 30.6143C90.2995 31.1748 90.8372 31.4551 91.5391 31.4551C92.2272 31.4551 92.7559 31.1862 93.125 30.6484C93.4941 30.1061 93.681 29.3177 93.6855 28.2832V27.7979ZM104.787 23.0469V29.6025C104.787 30.6917 104.445 31.5531 103.762 32.1865C103.083 32.82 102.153 33.1367 100.973 33.1367C99.8105 33.1367 98.8877 32.8291 98.2041 32.2139C97.5205 31.5986 97.1719 30.7533 97.1582 29.6777V23.0469H99.209V29.6162C99.209 30.2679 99.3639 30.7441 99.6738 31.0449C99.9883 31.3411 100.421 31.4893 100.973 31.4893C102.126 31.4893 102.711 30.8831 102.729 29.6709V23.0469H104.787ZM113.961 24.708H110.912V33H108.861V24.708H105.854V23.0469H113.961V24.708ZM118.213 33V23.0469H121.699C122.907 23.0469 123.823 23.2793 124.447 23.7441C125.072 24.2044 125.384 24.8812 125.384 25.7744C125.384 26.262 125.258 26.6927 125.008 27.0664C124.757 27.4355 124.409 27.7067 123.962 27.8799C124.472 28.0075 124.873 28.265 125.165 28.6523C125.461 29.0397 125.609 29.5137 125.609 30.0742C125.609 31.0312 125.304 31.7559 124.693 32.248C124.083 32.7402 123.212 32.9909 122.082 33H118.213ZM120.264 28.666V31.3525H122.021C122.504 31.3525 122.88 31.2386 123.148 31.0107C123.422 30.7783 123.559 30.4593 123.559 30.0537C123.559 29.1423 123.087 28.6797 122.144 28.666H120.264ZM120.264 27.2168H121.781C122.816 27.1986 123.333 26.7861 123.333 25.9795C123.333 25.5283 123.201 25.2048 122.937 25.0088C122.677 24.8083 122.264 24.708 121.699 24.708H120.264V27.2168ZM135.33 28.249C135.33 29.2288 135.157 30.0879 134.811 30.8262C134.464 31.5645 133.967 32.1341 133.32 32.5352C132.678 32.9362 131.939 33.1367 131.105 33.1367C130.281 33.1367 129.545 32.9385 128.897 32.542C128.25 32.1455 127.749 31.5804 127.394 30.8467C127.038 30.1084 126.858 29.2607 126.854 28.3037V27.8115C126.854 26.8317 127.029 25.9704 127.38 25.2275C127.735 24.4801 128.234 23.9082 128.877 23.5117C129.524 23.1107 130.262 22.9102 131.092 22.9102C131.921 22.9102 132.657 23.1107 133.3 23.5117C133.947 23.9082 134.446 24.4801 134.797 25.2275C135.152 25.9704 135.33 26.8294 135.33 27.8047V28.249ZM133.252 27.7979C133.252 26.7542 133.065 25.9613 132.691 25.4189C132.318 24.8766 131.785 24.6055 131.092 24.6055C130.404 24.6055 129.873 24.8743 129.499 25.4121C129.125 25.9453 128.936 26.7292 128.932 27.7637V28.249C128.932 29.2653 129.118 30.0537 129.492 30.6143C129.866 31.1748 130.404 31.4551 131.105 31.4551C131.794 31.4551 132.322 31.1862 132.691 30.6484C133.061 30.1061 133.247 29.3177 133.252 28.2832V27.7979ZM140.505 29.3564H138.871V33H136.82V23.0469H140.519C141.694 23.0469 142.601 23.3089 143.239 23.833C143.877 24.3571 144.196 25.0977 144.196 26.0547C144.196 26.7337 144.048 27.3011 143.752 27.7568C143.46 28.208 143.016 28.568 142.419 28.8369L144.572 32.9043V33H142.371L140.505 29.3564ZM138.871 27.6953H140.525C141.04 27.6953 141.439 27.5654 141.722 27.3057C142.004 27.0413 142.146 26.679 142.146 26.2188C142.146 25.7493 142.011 25.3802 141.742 25.1113C141.478 24.8424 141.07 24.708 140.519 24.708H138.871V27.6953ZM145.762 33V23.0469H148.824C149.699 23.0469 150.481 23.2451 151.169 23.6416C151.862 24.0335 152.402 24.5941 152.789 25.3232C153.176 26.0479 153.37 26.8727 153.37 27.7979V28.2559C153.37 29.181 153.179 30.0036 152.796 30.7236C152.418 31.4437 151.882 32.002 151.189 32.3984C150.497 32.7949 149.715 32.9954 148.845 33H145.762ZM147.812 24.708V31.3525H148.804C149.606 31.3525 150.219 31.0905 150.643 30.5664C151.066 30.0423 151.283 29.2926 151.292 28.3174V27.791C151.292 26.7793 151.082 26.0137 150.663 25.4941C150.244 24.9701 149.631 24.708 148.824 24.708H147.812ZM160.855 28.6865H156.918V31.3525H161.539V33H154.867V23.0469H161.525V24.708H156.918V27.0801H160.855V28.6865ZM166.427 29.3564H164.793V33H162.742V23.0469H166.44C167.616 23.0469 168.523 23.3089 169.161 23.833C169.799 24.3571 170.118 25.0977 170.118 26.0547C170.118 26.7337 169.97 27.3011 169.674 27.7568C169.382 28.208 168.938 28.568 168.341 28.8369L170.494 32.9043V33H168.293L166.427 29.3564ZM164.793 27.6953H166.447C166.962 27.6953 167.361 27.5654 167.644 27.3057C167.926 27.0413 168.067 26.679 168.067 26.2188C168.067 25.7493 167.933 25.3802 167.664 25.1113C167.4 24.8424 166.992 24.708 166.44 24.708H164.793V27.6953ZM176.845 30.3887C176.845 30.0013 176.708 29.7051 176.435 29.5C176.161 29.2904 175.669 29.0716 174.958 28.8438C174.247 28.6113 173.684 28.3835 173.27 28.1602C172.139 27.5495 171.574 26.7269 171.574 25.6924C171.574 25.1546 171.725 24.6761 172.025 24.2568C172.331 23.833 172.766 23.5026 173.331 23.2656C173.901 23.0286 174.539 22.9102 175.245 22.9102C175.956 22.9102 176.59 23.04 177.146 23.2998C177.701 23.555 178.132 23.9173 178.438 24.3867C178.747 24.8561 178.902 25.3893 178.902 25.9863H176.852C176.852 25.5306 176.708 25.1774 176.421 24.9268C176.134 24.6715 175.73 24.5439 175.211 24.5439C174.71 24.5439 174.32 24.651 174.042 24.8652C173.764 25.0749 173.625 25.3529 173.625 25.6992C173.625 26.0228 173.787 26.2939 174.11 26.5127C174.438 26.7314 174.919 26.9365 175.553 27.1279C176.719 27.4788 177.569 27.9141 178.103 28.4336C178.636 28.9531 178.902 29.6003 178.902 30.375C178.902 31.2363 178.576 31.9131 177.925 32.4053C177.273 32.8929 176.396 33.1367 175.293 33.1367C174.527 33.1367 173.83 32.9977 173.201 32.7197C172.572 32.4372 172.091 32.0521 171.759 31.5645C171.431 31.0768 171.267 30.5117 171.267 29.8691H173.324C173.324 30.9674 173.98 31.5166 175.293 31.5166C175.781 31.5166 176.161 31.4186 176.435 31.2227C176.708 31.0221 176.845 30.7441 176.845 30.3887Z" fill="#252525"/>
</svg>
